<svg class="rich-terminal" viewBox="0 0 1482 830.8" xmlns="http://www.w3.org/2000/svg">
    <!-- Generated with Rich https://www.textualize.io -->
    <style>

    @font-face {
        font-family: "Fira Code";
        src: local("FiraCode-Regular"),
                url("https://cdnjs.cloudflare.com/ajax/libs/firacode/6.2.0/woff2/FiraCode-Regular.woff2") format("woff2"),
                url("https://cdnjs.cloudflare.com/ajax/libs/firacode/6.2.0/woff/FiraCode-Regular.woff") format("woff");
        font-style: normal;
        font-weight: 400;
    }
    @font-face {
        font-family: "Fira Code";
        src: local("FiraCode-Bold"),
                url("https://cdnjs.cloudflare.com/ajax/libs/firacode/6.2.0/woff2/FiraCode-Bold.woff2") format("woff2"),
                url("https://cdnjs.cloudflare.com/ajax/libs/firacode/6.2.0/woff/FiraCode-Bold.woff") format("woff");
        font-style: bold;
        font-weight: 700;
    }

    .terminal-1746722976-matrix {
        font-family: Fira Code, monospace;
        font-size: 20px;
        line-height: 24.4px;
        font-variant-east-asian: full-width;
    }

    .terminal-1746722976-title {
        font-size: 18px;
        font-weight: bold;
        font-family: arial;
    }

    .terminal-1746722976-r1 { fill: #c5c8c6 }
.terminal-1746722976-r2 { fill: #d87757 }
.terminal-1746722976-r3 { fill: #d87757;font-weight: bold }
.terminal-1746722976-r4 { fill: #eae7f7 }
.terminal-1746722976-r5 { fill: #a4a2ae }
    </style>

    <defs>
    <clipPath id="terminal-1746722976-clip-terminal">
      <rect x="0" y="0" width="1463.0" height="779.8" />
    </clipPath>
    <clipPath id="terminal-1746722976-line-0">
    <rect x="0" y="1.5" width="1464" height="24.65"/>
            </clipPath>
<clipPath id="terminal-1746722976-line-1">
    <rect x="0" y="25.9" width="1464" height="24.65"/>
            </clipPath>
<clipPath id="terminal-1746722976-line-2">
    <rect x="0" y="50.3" width="1464" height="24.65"/>
            </clipPath>
<clipPath id="terminal-1746722976-line-3">
    <rect x="0" y="74.7" width="1464" height="24.65"/>
            </clipPath>
<clipPath id="terminal-1746722976-line-4">
    <rect x="0" y="99.1" width="1464" height="24.65"/>
            </clipPath>
<clipPath id="terminal-1746722976-line-5">
    <rect x="0" y="123.5" width="1464" height="24.65"/>
            </clipPath>
<clipPath id="terminal-1746722976-line-6">
    <rect x="0" y="147.9" width="1464" height="24.65"/>
            </clipPath>
<clipPath id="terminal-1746722976-line-7">
    <rect x="0" y="172.3" width="1464" height="24.65"/>
            </clipPath>
<clipPath id="terminal-1746722976-line-8">
    <rect x="0" y="196.7" width="1464" height="24.65"/>
            </clipPath>
<clipPath id="terminal-1746722976-line-9">
    <rect x="0" y="221.1" width="1464" height="24.65"/>
            </clipPath>
<clipPath id="terminal-1746722976-line-10">
    <rect x="0" y="245.5" width="1464" height="24.65"/>
            </clipPath>
<clipPath id="terminal-1746722976-line-11">
    <rect x="0" y="269.9" width="1464" height="24.65"/>
            </clipPath>
<clipPath id="terminal-1746722976-line-12">
    <rect x="0" y="294.3" width="1464" height="24.65"/>
            </clipPath>
<clipPath id="terminal-1746722976-line-13">
    <rect x="0" y="318.7" width="1464" height="24.65"/>
            </clipPath>
<clipPath id="terminal-1746722976-line-14">
    <rect x="0" y="343.1" width="1464" height="24.65"/>
            </clipPath>
<clipPath id="terminal-1746722976-line-15">
    <rect x="0" y="367.5" width="1464" height="24.65"/>
            </clipPath>
<clipPath id="terminal-1746722976-line-16">
    <rect x="0" y="391.9" width="1464" height="24.65"/>
            </clipPath>
<clipPath id="terminal-1746722976-line-17">
    <rect x="0" y="416.3" width="1464" height="24.65"/>
            </clipPath>
<clipPath id="terminal-1746722976-line-18">
    <rect x="0" y="440.7" width="1464" height="24.65"/>
            </clipPath>
<clipPath id="terminal-1746722976-line-19">
    <rect x="0" y="465.1" width="1464" height="24.65"/>
            </clipPath>
<clipPath id="terminal-1746722976-line-20">
    <rect x="0" y="489.5" width="1464" height="24.65"/>
            </clipPath>
<clipPath id="terminal-1746722976-line-21">
    <rect x="0" y="513.9" width="1464" height="24.65"/>
            </clipPath>
<clipPath id="terminal-1746722976-line-22">
    <rect x="0" y="538.3" width="1464" height="24.65"/>
            </clipPath>
<clipPath id="terminal-1746722976-line-23">
    <rect x="0" y="562.7" width="1464" height="24.65"/>
            </clipPath>
<clipPath id="terminal-1746722976-line-24">
    <rect x="0" y="587.1" width="1464" height="24.65"/>
            </clipPath>
<clipPath id="terminal-1746722976-line-25">
    <rect x="0" y="611.5" width="1464" height="24.65"/>
            </clipPath>
<clipPath id="terminal-1746722976-line-26">
    <rect x="0" y="635.9" width="1464" height="24.65"/>
            </clipPath>
<clipPath id="terminal-1746722976-line-27">
    <rect x="0" y="660.3" width="1464" height="24.65"/>
            </clipPath>
<clipPath id="terminal-1746722976-line-28">
    <rect x="0" y="684.7" width="1464" height="24.65"/>
            </clipPath>
<clipPath id="terminal-1746722976-line-29">
    <rect x="0" y="709.1" width="1464" height="24.65"/>
            </clipPath>
<clipPath id="terminal-1746722976-line-30">
    <rect x="0" y="733.5" width="1464" height="24.65"/>
            </clipPath>
    </defs>

    <rect fill="#292929" stroke="rgba(255,255,255,0.35)" stroke-width="1" x="1" y="1" width="1480" height="828.8" rx="8"/><text class="terminal-1746722976-title" fill="#c5c8c6" text-anchor="middle" x="740" y="27">Priest&#160;Code</text>
            <g transform="translate(26,22)">
            <circle cx="0" cy="0" r="7" fill="#ff5f57"/>
            <circle cx="22" cy="0" r="7" fill="#febc2e"/>
            <circle cx="44" cy="0" r="7" fill="#28c840"/>
            </g>
        
    <g transform="translate(9, 41)" clip-path="url(#terminal-1746722976-clip-terminal)">
    <rect fill="#0c0a16" x="0" y="1.5" width="1464" height="24.65" shape-rendering="crispEdges"/><rect fill="#0c0a16" x="0" y="25.9" width="1464" height="24.65" shape-rendering="crispEdges"/><rect fill="#0c0a16" x="0" y="50.3" width="1464" height="24.65" shape-rendering="crispEdges"/><rect fill="#0c0a16" x="0" y="74.7" width="1464" height="24.65" shape-rendering="crispEdges"/><rect fill="#0c0a16" x="0" y="99.1" width="1464" height="24.65" shape-rendering="crispEdges"/><rect fill="#0c0a16" x="0" y="123.5" width="1464" height="24.65" shape-rendering="crispEdges"/><rect fill="#0c0a16" x="0" y="147.9" width="1464" height="24.65" shape-rendering="crispEdges"/><rect fill="#0c0a16" x="0" y="172.3" width="1464" height="24.65" shape-rendering="crispEdges"/><rect fill="#0c0a16" x="0" y="196.7" width="1464" height="24.65" shape-rendering="crispEdges"/><rect fill="#0c0a16" x="0" y="221.1" width="1464" height="24.65" shape-rendering="crispEdges"/><rect fill="#0c0a16" x="0" y="245.5" width="1464" height="24.65" shape-rendering="crispEdges"/><rect fill="#0c0a16" x="0" y="269.9" width="1464" height="24.65" shape-rendering="crispEdges"/><rect fill="#0c0a16" x="0" y="294.3" width="256.2" height="24.65" shape-rendering="crispEdges"/><rect fill="#1c1836" x="256.2" y="294.3" width="12.2" height="24.65" shape-rendering="crispEdges"/><rect fill="#1c1836" x="268.4" y="294.3" width="927.2" height="24.65" shape-rendering="crispEdges"/><rect fill="#1c1836" x="1195.6" y="294.3" width="12.2" height="24.65" shape-rendering="crispEdges"/><rect fill="#0c0a16" x="1207.8" y="294.3" width="256.2" height="24.65" shape-rendering="crispEdges"/><rect fill="#0c0a16" x="0" y="318.7" width="256.2" height="24.65" shape-rendering="crispEdges"/><rect fill="#1c1836" x="256.2" y="318.7" width="12.2" height="24.65" shape-rendering="crispEdges"/><rect fill="#1c1836" x="268.4" y="318.7" width="927.2" height="24.65" shape-rendering="crispEdges"/><rect fill="#1c1836" x="1195.6" y="318.7" width="12.2" height="24.65" shape-rendering="crispEdges"/><rect fill="#0c0a16" x="1207.8" y="318.7" width="256.2" height="24.65" shape-rendering="crispEdges"/><rect fill="#0c0a16" x="0" y="343.1" width="256.2" height="24.65" shape-rendering="crispEdges"/><rect fill="#1c1836" x="256.2" y="343.1" width="12.2" height="24.65" shape-rendering="crispEdges"/><rect fill="#1c1836" x="268.4" y="343.1" width="24.4" height="24.65" shape-rendering="crispEdges"/><rect fill="#1c1836" x="292.8" y="343.1" width="207.4" height="24.65" shape-rendering="crispEdges"/><rect fill="#1c1836" x="500.2" y="343.1" width="671" height="24.65" shape-rendering="crispEdges"/><rect fill="#1c1836" x="1171.2" y="343.1" width="24.4" height="24.65" shape-rendering="crispEdges"/><rect fill="#1c1836" x="1195.6" y="343.1" width="12.2" height="24.65" shape-rendering="crispEdges"/><rect fill="#0c0a16" x="1207.8" y="343.1" width="256.2" height="24.65" shape-rendering="crispEdges"/><rect fill="#0c0a16" x="0" y="367.5" width="256.2" height="24.65" shape-rendering="crispEdges"/><rect fill="#1c1836" x="256.2" y="367.5" width="12.2" height="24.65" shape-rendering="crispEdges"/><rect fill="#1c1836" x="268.4" y="367.5" width="24.4" height="24.65" shape-rendering="crispEdges"/><rect fill="#1c1836" x="292.8" y="367.5" width="341.6" height="24.65" shape-rendering="crispEdges"/><rect fill="#1c1836" x="634.4" y="367.5" width="536.8" height="24.65" shape-rendering="crispEdges"/><rect fill="#1c1836" x="1171.2" y="367.5" width="24.4" height="24.65" shape-rendering="crispEdges"/><rect fill="#1c1836" x="1195.6" y="367.5" width="12.2" height="24.65" shape-rendering="crispEdges"/><rect fill="#0c0a16" x="1207.8" y="367.5" width="256.2" height="24.65" shape-rendering="crispEdges"/><rect fill="#0c0a16" x="0" y="391.9" width="256.2" height="24.65" shape-rendering="crispEdges"/><rect fill="#1c1836" x="256.2" y="391.9" width="12.2" height="24.65" shape-rendering="crispEdges"/><rect fill="#1c1836" x="268.4" y="391.9" width="24.4" height="24.65" shape-rendering="crispEdges"/><rect fill="#1c1836" x="292.8" y="391.9" width="427" height="24.65" shape-rendering="crispEdges"/><rect fill="#1c1836" x="719.8" y="391.9" width="451.4" height="24.65" shape-rendering="crispEdges"/><rect fill="#1c1836" x="1171.2" y="391.9" width="24.4" height="24.65" shape-rendering="crispEdges"/><rect fill="#1c1836" x="1195.6" y="391.9" width="12.2" height="24.65" shape-rendering="crispEdges"/><rect fill="#0c0a16" x="1207.8" y="391.9" width="256.2" height="24.65" shape-rendering="crispEdges"/><rect fill="#0c0a16" x="0" y="416.3" width="256.2" height="24.65" shape-rendering="crispEdges"/><rect fill="#1c1836" x="256.2" y="416.3" width="12.2" height="24.65" shape-rendering="crispEdges"/><rect fill="#1c1836" x="268.4" y="416.3" width="927.2" height="24.65" shape-rendering="crispEdges"/><rect fill="#1c1836" x="1195.6" y="416.3" width="12.2" height="24.65" shape-rendering="crispEdges"/><rect fill="#0c0a16" x="1207.8" y="416.3" width="256.2" height="24.65" shape-rendering="crispEdges"/><rect fill="#0c0a16" x="0" y="440.7" width="256.2" height="24.65" shape-rendering="crispEdges"/><rect fill="#1c1836" x="256.2" y="440.7" width="12.2" height="24.65" shape-rendering="crispEdges"/><rect fill="#1c1836" x="268.4" y="440.7" width="927.2" height="24.65" shape-rendering="crispEdges"/><rect fill="#1c1836" x="1195.6" y="440.7" width="12.2" height="24.65" shape-rendering="crispEdges"/><rect fill="#0c0a16" x="1207.8" y="440.7" width="256.2" height="24.65" shape-rendering="crispEdges"/><rect fill="#0c0a16" x="0" y="465.1" width="1464" height="24.65" shape-rendering="crispEdges"/><rect fill="#0c0a16" x="0" y="489.5" width="1464" height="24.65" shape-rendering="crispEdges"/><rect fill="#0c0a16" x="0" y="513.9" width="1464" height="24.65" shape-rendering="crispEdges"/><rect fill="#0c0a16" x="0" y="538.3" width="1464" height="24.65" shape-rendering="crispEdges"/><rect fill="#0c0a16" x="0" y="562.7" width="1464" height="24.65" shape-rendering="crispEdges"/><rect fill="#0c0a16" x="0" y="587.1" width="1464" height="24.65" shape-rendering="crispEdges"/><rect fill="#0c0a16" x="0" y="611.5" width="1464" height="24.65" shape-rendering="crispEdges"/><rect fill="#0c0a16" x="0" y="635.9" width="1464" height="24.65" shape-rendering="crispEdges"/><rect fill="#0c0a16" x="0" y="660.3" width="1464" height="24.65" shape-rendering="crispEdges"/><rect fill="#0c0a16" x="0" y="684.7" width="1464" height="24.65" shape-rendering="crispEdges"/><rect fill="#0c0a16" x="0" y="709.1" width="1464" height="24.65" shape-rendering="crispEdges"/><rect fill="#0c0a16" x="0" y="733.5" width="1464" height="24.65" shape-rendering="crispEdges"/><rect fill="#0c0a16" x="0" y="757.9" width="1464" height="24.65" shape-rendering="crispEdges"/>
    <g class="terminal-1746722976-matrix">
    <text class="terminal-1746722976-r1" x="1464" y="20" textLength="12.2" clip-path="url(#terminal-1746722976-line-0)">
</text><text class="terminal-1746722976-r1" x="1464" y="44.4" textLength="12.2" clip-path="url(#terminal-1746722976-line-1)">
</text><text class="terminal-1746722976-r1" x="1464" y="68.8" textLength="12.2" clip-path="url(#terminal-1746722976-line-2)">
</text><text class="terminal-1746722976-r1" x="1464" y="93.2" textLength="12.2" clip-path="url(#terminal-1746722976-line-3)">
</text><text class="terminal-1746722976-r1" x="1464" y="117.6" textLength="12.2" clip-path="url(#terminal-1746722976-line-4)">
</text><text class="terminal-1746722976-r1" x="1464" y="142" textLength="12.2" clip-path="url(#terminal-1746722976-line-5)">
</text><text class="terminal-1746722976-r1" x="1464" y="166.4" textLength="12.2" clip-path="url(#terminal-1746722976-line-6)">
</text><text class="terminal-1746722976-r1" x="1464" y="190.8" textLength="12.2" clip-path="url(#terminal-1746722976-line-7)">
</text><text class="terminal-1746722976-r1" x="1464" y="215.2" textLength="12.2" clip-path="url(#terminal-1746722976-line-8)">
</text><text class="terminal-1746722976-r1" x="1464" y="239.6" textLength="12.2" clip-path="url(#terminal-1746722976-line-9)">
</text><text class="terminal-1746722976-r1" x="1464" y="264" textLength="12.2" clip-path="url(#terminal-1746722976-line-10)">
</text><text class="terminal-1746722976-r1" x="1464" y="288.4" textLength="12.2" clip-path="url(#terminal-1746722976-line-11)">
</text><text class="terminal-1746722976-r2" x="256.2" y="312.8" textLength="12.2" clip-path="url(#terminal-1746722976-line-12)">╭</text><text class="terminal-1746722976-r2" x="268.4" y="312.8" textLength="927.2" clip-path="url(#terminal-1746722976-line-12)">────────────────────────────────────────────────────────────────────────────</text><text class="terminal-1746722976-r2" x="1195.6" y="312.8" textLength="12.2" clip-path="url(#terminal-1746722976-line-12)">╮</text><text class="terminal-1746722976-r1" x="1464" y="312.8" textLength="12.2" clip-path="url(#terminal-1746722976-line-12)">
</text><text class="terminal-1746722976-r2" x="256.2" y="337.2" textLength="12.2" clip-path="url(#terminal-1746722976-line-13)">│</text><text class="terminal-1746722976-r2" x="1195.6" y="337.2" textLength="12.2" clip-path="url(#terminal-1746722976-line-13)">│</text><text class="terminal-1746722976-r1" x="1464" y="337.2" textLength="12.2" clip-path="url(#terminal-1746722976-line-13)">
</text><text class="terminal-1746722976-r2" x="256.2" y="361.6" textLength="12.2" clip-path="url(#terminal-1746722976-line-14)">│</text><text class="terminal-1746722976-r3" x="292.8" y="361.6" textLength="207.4" clip-path="url(#terminal-1746722976-line-14)">Run&#160;this&#160;command?</text><text class="terminal-1746722976-r2" x="1195.6" y="361.6" textLength="12.2" clip-path="url(#terminal-1746722976-line-14)">│</text><text class="terminal-1746722976-r1" x="1464" y="361.6" textLength="12.2" clip-path="url(#terminal-1746722976-line-14)">
</text><text class="terminal-1746722976-r2" x="256.2" y="386" textLength="12.2" clip-path="url(#terminal-1746722976-line-15)">│</text><text class="terminal-1746722976-r4" x="292.8" y="386" textLength="341.6" clip-path="url(#terminal-1746722976-line-15)">rm&#160;-rf&#160;build&#160;dist&#160;*.egg-info</text><text class="terminal-1746722976-r2" x="1195.6" y="386" textLength="12.2" clip-path="url(#terminal-1746722976-line-15)">│</text><text class="terminal-1746722976-r1" x="1464" y="386" textLength="12.2" clip-path="url(#terminal-1746722976-line-15)">
</text><text class="terminal-1746722976-r2" x="256.2" y="410.4" textLength="12.2" clip-path="url(#terminal-1746722976-line-16)">│</text><text class="terminal-1746722976-r5" x="292.8" y="410.4" textLength="427" clip-path="url(#terminal-1746722976-line-16)">[y]&#160;run&#160;&#160;&#160;&#160;[n]&#160;skip&#160;&#160;&#160;&#160;(esc&#160;=&#160;skip)</text><text class="terminal-1746722976-r2" x="1195.6" y="410.4" textLength="12.2" clip-path="url(#terminal-1746722976-line-16)">│</text><text class="terminal-1746722976-r1" x="1464" y="410.4" textLength="12.2" clip-path="url(#terminal-1746722976-line-16)">
</text><text class="terminal-1746722976-r2" x="256.2" y="434.8" textLength="12.2" clip-path="url(#terminal-1746722976-line-17)">│</text><text class="terminal-1746722976-r2" x="1195.6" y="434.8" textLength="12.2" clip-path="url(#terminal-1746722976-line-17)">│</text><text class="terminal-1746722976-r1" x="1464" y="434.8" textLength="12.2" clip-path="url(#terminal-1746722976-line-17)">
</text><text class="terminal-1746722976-r2" x="256.2" y="459.2" textLength="12.2" clip-path="url(#terminal-1746722976-line-18)">╰</text><text class="terminal-1746722976-r2" x="268.4" y="459.2" textLength="927.2" clip-path="url(#terminal-1746722976-line-18)">────────────────────────────────────────────────────────────────────────────</text><text class="terminal-1746722976-r2" x="1195.6" y="459.2" textLength="12.2" clip-path="url(#terminal-1746722976-line-18)">╯</text><text class="terminal-1746722976-r1" x="1464" y="459.2" textLength="12.2" clip-path="url(#terminal-1746722976-line-18)">
</text><text class="terminal-1746722976-r1" x="1464" y="483.6" textLength="12.2" clip-path="url(#terminal-1746722976-line-19)">
</text><text class="terminal-1746722976-r1" x="1464" y="508" textLength="12.2" clip-path="url(#terminal-1746722976-line-20)">
</text><text class="terminal-1746722976-r1" x="1464" y="532.4" textLength="12.2" clip-path="url(#terminal-1746722976-line-21)">
</text><text class="terminal-1746722976-r1" x="1464" y="556.8" textLength="12.2" clip-path="url(#terminal-1746722976-line-22)">
</text><text class="terminal-1746722976-r1" x="1464" y="581.2" textLength="12.2" clip-path="url(#terminal-1746722976-line-23)">
</text><text class="terminal-1746722976-r1" x="1464" y="605.6" textLength="12.2" clip-path="url(#terminal-1746722976-line-24)">
</text><text class="terminal-1746722976-r1" x="1464" y="630" textLength="12.2" clip-path="url(#terminal-1746722976-line-25)">
</text><text class="terminal-1746722976-r1" x="1464" y="654.4" textLength="12.2" clip-path="url(#terminal-1746722976-line-26)">
</text><text class="terminal-1746722976-r1" x="1464" y="678.8" textLength="12.2" clip-path="url(#terminal-1746722976-line-27)">
</text><text class="terminal-1746722976-r1" x="1464" y="703.2" textLength="12.2" clip-path="url(#terminal-1746722976-line-28)">
</text><text class="terminal-1746722976-r1" x="1464" y="727.6" textLength="12.2" clip-path="url(#terminal-1746722976-line-29)">
</text><text class="terminal-1746722976-r1" x="1464" y="752" textLength="12.2" clip-path="url(#terminal-1746722976-line-30)">
</text>
    </g>
    </g>
</svg>
